<svg xmlns="http://www.w3.org/2000/svg" viewBox="0 0 464 464">
  <title>FYST logo</title>
  <path d="M435.89 342.78A231 231 0 0 0 464 232C464 103.87 360.13 0 232 0S0 103.87 0 232a231 231 0 0 0 27.89 110.38c18.51-15.3 170-146.38 174-150.68-4.8-9.15-6-18.83-2.37-28.85a34.06 34.06 0 0 1 12.64-16.55 34.48 34.48 0 0 1 53.56 20.94c2 8.71.22 16.79-3.64 24.73zM309.78 74.87l-12 3.95-3.8 12-4-12-11.94-3.94L290 71l4-12 3.79 12zm66.79 51.43l2.48 7.22c2.17 1.5 4.91 1.32 7.1 2.93l-7.09 2.39-2.46 7.44-2.52-7.49-7.08-2.33c2.3-1.61 5.22-1.41 7.22-3zM71.84 200l-2.47 7.51-2.55-7.51-7.51-2.45 7.5-2.54c1.11-2.34 1.26-4.91 2.65-7.17l2.4 7.22 7.59 2.47z"/>
  <path d="M321.66 354.39c-8.72-4-18.08-4.08-27.43-4.14-14.68-.09-29.31 1.11-44 1.68-17.4.67-34.76-.18-51.82-3.65-17.72-3.59-35-8.77-49.89-19.69-3.83-2.81-7.28-6-9.33-10.52a9.64 9.64 0 0 1 1.41-11c4.47-5.33 10.49-8.47 16.59-11.31 11.26-5.25 22.72-10.08 34-15.21 14.84-6.72 29.39-14 42.7-23.51 5.27-3.74 10.27-7.74 14.13-13.08 4.09-5.66 3.65-9.5-1.6-14-3.57-3.08-7.13-6.23-9.83-10.07-1.71-2.44-2.52-5.53-3.72-8.33l-.6-1.42a1.22 1.22 0 0 0-1-.73c-3.55-.45-7.12-.67-10.51-1.88a37.52 37.52 0 0 1-9.51-5.07 1.08 1.08 0 0 0-1.23 0l-175.11 152a232.25 232.25 0 0 0 247.25 104.09c7.51-13.14 32.65-46.2 44.57-69.16 4.23-9.54 5.57-15.33 5.44-19.19-.29-7.46-3.83-12.71-10.51-15.81z"/>
  <path d="M357 399.37c-.5.86-16.7 29.32-23 41a233 233 0 0 0 95.17-86.07L253.41 201.84a40.69 40.69 0 0 1-12.46 6.28 23.68 23.68 0 0 0 11.73 15.75c3.08 1.76 6.41 3.09 9.58 4.69 4.64 2.34 5.87 5.23 4.44 10.2-1.69 5.85-5.49 10.38-9.52 14.67-15 15.92-32.94 27.56-52.49 37-9 4.33-18.37 7.93-27.11 12.86a19.64 19.64 0 0 0-5.52 4.17 5.33 5.33 0 0 0-.19 7.12A18.77 18.77 0 0 0 179 320c8.44 4.17 17.52 6.16 26.72 7.68 11.69 1.93 23.48 2 35.26 1.7 9.09-.24 18.18-.72 27.27-1.2a307 307 0 0 1 36.42.2c13.73.91 27.31 2.5 40.17 7.51 7.37 2.87 14.09 6.8 18.69 13.54 6.34 9.3 5.58 19.35 2.69 29.48a89.57 89.57 0 0 1-9.19 20.5z"/>
  <path d="M227 195.3c8.24 2.1 15.31-.5 21.38-7l-32.25-28a19.89 19.89 0 0 0-5.13 18.23c1.72 8.83 7.32 14.66 16 16.77z"/>
</svg>
